# xmcd
#
# Track frame offsets: 
#        150
#        11192
#        21345
#        34547
#        44460
#        56647
#        70075
#        81850
#        93182
#        104075
#        116990
#        129122
#        139757
#        159822
#        173087
#        187685
#
# Disc length: 2652 seconds
#
# Revision: 1
# Processed by: cddbd v1.5.2PL0 Copyright (c) Steve Scherf et al.
# Submitted via: ExactAudioCopy v1.0b1
#
DISCID=cc0a5a10
DTITLE=John Lee Hooker - Travelin'
DYEAR=1999
DGENRE=Blues
TTITLE0=No Shoes (stereo)
TTITLE1=I Wanna Walk (stereo)
TTITLE2=Canal Street Blues (stereo)
TTITLE3=Run On (stereo)
TTITLE4=I'm A Stranger (stereo)
TTITLE5=Whiskey And Wimmen (stereo)
TTITLE6=Solid Sender (stereo)
TTITLE7=Sunny Land (stereo)
TTITLE8=Goin' To California (stereo)
TTITLE9=I Can't Believe (stereo)
TTITLE10=I'll Know Tonight (stereo)
TTITLE11=Dusty Road (stereo)
TTITLE12=Nightmare (stereo)
TTITLE13=Drive Me Away (stereo)
TTITLE14=Love Me All The Time (stereo)
TTITLE15=Bundle Up And Go (stereo)
EXTD=YEAR: 1999 ID3G: 0
EXTT0=
EXTT1=
EXTT2=
EXTT3=
EXTT4=
EXTT5=
EXTT6=
EXTT7=
EXTT8=
EXTT9=
EXTT10=
EXTT11=
EXTT12=
EXTT13=
EXTT14=
EXTT15=
PLAYORDER=
